<?xml version="1.0" encoding="utf-8"?>
<!-- Generator: Adobe Illustrator 27.3.1, SVG Export Plug-In . SVG Version: 6.00 Build 0)  -->
<svg version="1.1" id="Layer_1" xmlns="http://www.w3.org/2000/svg" xmlns:xlink="http://www.w3.org/1999/xlink" x="0px" y="0px"
	 viewBox="0 0 398.96 192.73" style="enable-background:new 0 0 398.96 192.73;" xml:space="preserve">
<style type="text/css">
	.st0{enable-background:new    ;}
	.st1{fill:#318341;}
	.st2{fill:#95C840;}
</style>
<g>
	<g class="st0">
		<path class="st1" d="M272.98,186.77v-25.75h14.71c5.85,0,8.99,2.71,8.99,7.02c0,2.21-1.57,4.07-3.64,4.81
			c2.52,0.81,4.54,2.56,4.54,6.25c0,4.69-3.64,7.68-11.15,7.68H272.98z M279.01,165.47v5.59h7.87c2.47,0,3.78-0.97,3.78-2.79
			c0-1.98-1.21-2.79-4.14-2.79H279.01z M286.92,182.38c2.88,0,4.59-1.59,4.59-3.69c0-2.25-1.71-3.26-4.5-3.26h-8v6.94H286.92z"/>
		<path class="st1" d="M305.54,186.77v-9.74l-10.34-16.02h7.29l6.29,10.47l5.8-10.47h7.2l-9.98,16.1v9.66H305.54z"/>
		<path class="st1" d="M352.17,186.77l-5.71-8.84l-6.03,8.84h-7.29l9.67-13.15l-9.13-12.61h7.38l5.4,8.34l5.44-8.34h7.24
			l-9.08,12.37l9.71,13.38H352.17z"/>
		<path class="st1" d="M379.55,186.77l-8.86-11.6l-3.33,2.83v8.77h-6.16v-25.75h6.16v10.47l11.42-10.47h8.09l-11.78,10.16
			l12.05,15.59H379.55z"/>
	</g>
	<path class="st2" d="M89.84,59.8c6.62,3.99,11.77,9.57,15.45,16.74c3.68,7.17,5.52,15.36,5.52,24.55c0,9.2-1.84,17.38-5.52,24.56
		c-3.68,7.17-8.83,12.75-15.45,16.74c-6.62,3.99-14.16,5.98-22.62,5.98c-12.39,0-22.44-4.23-30.16-12.69l-1.84,10.85H10.19
		c0.02-45.18,0.04-90.36,0.06-135.54c9.59,0,19.18,0,28.77,0c0.02,17.78,0.03,35.55,0.05,53.32c7.6-6.99,16.98-10.48,28.14-10.48
		C75.67,53.82,83.22,55.81,89.84,59.8z M76.04,117.74c4.05-4.23,6.07-9.78,6.07-16.65s-2.02-12.42-6.07-16.65s-9.26-6.35-15.63-6.35
		c-6.38,0-11.56,2.15-15.54,6.44c-3.99,4.29-5.98,9.81-5.98,16.55c0,6.75,1.99,12.26,5.98,16.56c3.98,4.29,9.16,6.44,15.54,6.44
		C66.78,124.08,71.99,121.97,76.04,117.74z"/>
	<path class="st2" d="M238.01,10.98c9.74,0,19.48,0,29.22,0c-0.11,45.18-0.23,90.36-0.34,135.54h-28.88
		C238.01,101.34,238.01,56.16,238.01,10.98z"/>
	<path class="st2" d="M384.87,55.66v90.86h-25.02l-1.84-10.85c-7.73,8.46-17.78,12.69-30.17,12.69c-8.46,0-15.97-1.99-22.53-5.98
		c-6.56-3.98-11.68-9.57-15.36-16.74c-3.68-7.17-5.52-15.36-5.52-24.56s1.84-17.38,5.52-24.55s8.8-12.75,15.36-16.74
		c6.56-3.98,14.07-5.98,22.53-5.98c6.13,0,11.77,1.08,16.92,3.22c5.15,2.15,9.57,5.24,13.24,9.29l1.84-10.67L384.87,55.66
		L384.87,55.66z M350.29,117.74c4.05-4.23,6.07-9.78,6.07-16.65s-2.02-12.42-6.07-16.65c-4.05-4.23-9.26-6.35-15.63-6.35
		c-6.38,0-11.56,2.15-15.54,6.44c-3.99,4.29-5.98,9.81-5.98,16.55c0,6.75,1.99,12.26,5.98,16.56c3.98,4.29,9.16,6.44,15.54,6.44
		C341.03,124.08,346.24,121.97,350.29,117.74z"/>
	<path class="st2" d="M194.29,55.66l-1.84,10.67c-3.68-4.05-8.09-7.14-13.24-9.29c-5.15-2.14-10.79-3.22-16.92-3.22
		c-8.46,0-15.97,2-22.53,5.98c-6.56,3.99-11.68,9.57-15.36,16.74c-3.68,7.17-5.52,15.36-5.52,24.55c0,9.2,1.84,17.38,5.52,24.56
		c3.68,7.17,8.8,12.75,15.36,16.74s14.07,5.98,22.53,5.98c12.38,0,22.44-4.23,30.17-12.69l1.84,10.85h25.02V55.66H194.29z
		 M202.23,117.83c-17.28,2.03-31.93-3.44-44.09-16.69c2.69,9.47,12.96,16.59,30.9,21.7c-9.91,9.85-28.94,9.21-43.45-12.96
		c3.76-1.18,2.46-3.24,1.16-5.32c-4.75-7.6-7.1-15.93-7.42-24.84c-0.06-1.77,0.18-3.55,0.35-6.46c6.86,8.25,15.31,10.97,24.29,13.03
		c4.89,1.13,9.47,3.61,14.67,5.68c0.14-0.28,0.68-1.35,1.26-2.52c9.59,5.66,15.53,13.45,14.85,25.04c2.91,0.65,5.44,1.22,7.96,1.78
		C202.54,116.79,202.38,117.31,202.23,117.83z"/>
</g>
</svg>
